<svg class="svg-icon" style="width: 1em;height: 1em;vertical-align: middle;fill: currentColor;overflow: hidden;" viewBox="0 0 1024 1024" version="1.1" xmlns="http://www.w3.org/2000/svg"><path d="M256 512a170.666667 170.666667 0 1 1 170.666667-170.666667 170.666667 170.666667 0 0 1-170.666667 170.666667z m0-256a85.333333 85.333333 0 1 0 85.333333 85.333333 85.333333 85.333333 0 0 0-85.333333-85.333333zM725.333333 853.333333a213.333333 213.333333 0 0 1-213.333333-213.333333V384a213.333333 213.333333 0 0 1 426.666667 0 42.666667 42.666667 0 0 1-85.333334 0 128 128 0 0 0-256 0v256a128 128 0 0 0 256 0 42.666667 42.666667 0 0 1 85.333334 0 213.333333 213.333333 0 0 1-213.333334 213.333333z" fill="#486675" /></svg>