<svg class="svg-icon" style="width: 1em;height: 1em;vertical-align: middle;fill: currentColor;overflow: hidden;" viewBox="0 0 1024 1024" version="1.1" xmlns="http://www.w3.org/2000/svg"><path d="M768.67 87.67c-38.78 0-70.23 31.44-70.23 70.22 0 38.79 31.45 70.23 70.23 70.23s70.23-31.44 70.23-70.23c0.01-38.79-31.44-70.22-70.23-70.22z m0 105.33c-19.37 0-35.1-15.75-35.1-35.12 0-19.35 15.74-35.1 35.1-35.1 19.37 0 35.1 15.75 35.1 35.1 0.01 19.37-15.73 35.12-35.1 35.12zM189.33 509.01c-9.7 0-17.56-7.87-17.56-17.56s7.87-17.54 17.56-17.54h316.01c9.7 0 17.56 7.84 17.56 17.54s-7.87 17.56-17.56 17.56H189.33z" fill="#DA4453" /><path d="M189.33 930.35c-9.7 0-17.56-7.87-17.56-17.54V105.22c0-9.7 7.87-17.55 17.56-17.55 9.7 0 17.56 7.86 17.56 17.55v807.59c0.01 9.67-7.86 17.54-17.56 17.54z" fill="#ED5564" /><path d="M610.67 122.78H189.33c-9.7 0-17.56-7.87-17.56-17.56s7.87-17.55 17.56-17.55h421.34c9.7 0 17.56 7.86 17.56 17.55s-7.86 17.56-17.56 17.56z" fill="#ED5564" /></svg>